<svg width="195" height="93" viewBox="0 0 195 93" fill="none" xmlns="http://www.w3.org/2000/svg">
<path fill-rule="evenodd" clip-rule="evenodd" d="M99.0954 30.4786H79.1346V50.4638H99.0954V30.4786ZM88.2077 32.2954H80.9492V39.5627H88.2077V32.2954ZM90.0223 32.2954H97.2808V39.5627H90.0223V32.2954ZM90.0223 41.0032H97.2808V48.2706H90.0223V41.0032ZM88.2077 41.3795H80.9492V48.6469H88.2077V41.3795Z" fill="black"/>
<path fill-rule="evenodd" clip-rule="evenodd" d="M78.3344 29.6775H99.8955V51.2648H78.3344V29.6775ZM87.4075 33.0964H81.7492V38.7616H87.4075V33.0964ZM90.0223 32.2954H97.2808V39.5627H90.0223V32.2954ZM90.8223 38.7616H96.4807V33.0964H90.8223V38.7616ZM90.0223 41.0032H97.2808V48.2706H90.0223V41.0032ZM90.8223 47.4695H96.4807V41.8043H90.8223V47.4695ZM87.4075 42.1806H81.7492V47.8458H87.4075V42.1806ZM99.0954 30.4786V50.4638H79.1346V30.4786H99.0954ZM88.2077 32.2954V39.5627H80.9492V32.2954H88.2077ZM88.2077 41.3795V48.6469H80.9492V41.3795H88.2077Z" fill="black"/>
<path fill-rule="evenodd" clip-rule="evenodd" d="M89.5471 0L126.656 37.1541L122.884 40.9304L89.3312 7.33634L3.77168 93L0 89.2237L55.8777 33.278V4.23624H64.7492V24.3957L89.1151 0.000129296L89.331 0.216341L89.5471 0Z" fill="black"/>
<path d="M49.6451 92.2688C49.5864 91.9533 49.5864 91.6477 49.6451 91.3519C50.3108 91.3125 50.8003 91.2533 51.1135 91.1744C51.4268 91.0758 51.6324 90.8787 51.7303 90.5829C51.8282 90.2871 51.8771 89.8139 51.8771 89.1632V82.5379C51.8771 81.7688 51.838 81.197 51.7596 80.8224C51.7009 80.4477 51.5149 80.1914 51.2016 80.0534C50.908 79.8956 50.3989 79.7674 49.6745 79.6688C49.6158 79.3928 49.6158 79.1365 49.6745 78.8998C50.4577 78.7421 51.2212 78.5646 51.9652 78.3674C52.7092 78.1505 53.4924 77.8745 54.3147 77.5393L54.814 77.7167V80.3196C56.1845 78.5646 57.5844 77.6872 59.0136 77.6872C59.6989 77.6872 60.2079 77.8745 60.5408 78.2491C60.8736 78.6041 61.04 79.0083 61.04 79.4618C61.04 79.9942 60.8638 80.4083 60.5114 80.7041C60.159 80.9801 59.7576 81.1181 59.3073 81.1181C58.9353 81.1181 58.5633 81.0195 58.1913 80.8224C57.8389 80.6252 57.5746 80.3196 57.3984 79.9055C56.7327 79.9055 56.1355 80.1717 55.6069 80.7041C55.0978 81.2167 54.8433 81.8181 54.8433 82.5083V88.8674C54.8433 89.6364 54.8825 90.1885 54.9608 90.5237C55.0587 90.8589 55.2936 91.0758 55.6656 91.1744C56.0572 91.2533 56.6837 91.3125 57.5452 91.3519C57.5844 91.628 57.5844 91.9336 57.5452 92.2688C56.8795 92.2688 56.1943 92.2589 55.4894 92.2392C54.7846 92.2195 54.0602 92.2096 53.3162 92.2096C52.5917 92.2096 51.9456 92.2195 51.3779 92.2392C50.8296 92.2589 50.2521 92.2688 49.6451 92.2688Z" fill="black"/>
<path d="M82.0274 92.5942C80.6373 92.5942 79.4625 92.2688 78.5032 91.6181C77.5438 90.9674 76.8096 90.0998 76.3006 89.0153C75.8111 87.9111 75.5663 86.6984 75.5663 85.3773C75.5663 84.0167 75.8209 82.7548 76.3299 81.5914C76.8585 80.428 77.6221 79.4914 78.6206 78.7815C79.6192 78.052 80.8331 77.6872 82.2623 77.6872C83.9853 77.6872 85.3264 78.2097 86.2858 79.2548C87.2647 80.2801 87.7542 81.6111 87.7542 83.2477C87.7542 83.4449 87.7444 83.6224 87.7248 83.7801C87.7248 83.9181 87.715 84.0364 87.6955 84.135L78.4444 84.0463C78.4444 84.1252 78.4444 84.1942 78.4444 84.2533C78.4444 86.1857 78.885 87.704 79.766 88.8083C80.6471 89.9125 81.8805 90.4646 83.4664 90.4646C84.7978 90.4646 86.1096 90.0308 87.4018 89.1632C87.5976 89.3998 87.7444 89.6266 87.8423 89.8435C86.1781 91.6773 84.2398 92.5942 82.0274 92.5942ZM78.5325 82.9519L84.6118 82.8336C84.6314 82.7942 84.6412 82.7449 84.6412 82.6857C84.6412 82.6069 84.6412 82.5576 84.6412 82.5379C84.6412 81.4731 84.4062 80.5857 83.9363 79.8759C83.486 79.166 82.8105 78.8111 81.9099 78.8111C81.068 78.8111 80.3338 79.1562 79.7073 79.8463C79.0808 80.5365 78.6892 81.5717 78.5325 82.9519Z" fill="black"/>
<path d="M133.445 92.2688C133.406 91.9533 133.406 91.6477 133.445 91.3519C134.052 91.3125 134.503 91.2533 134.796 91.1744C135.09 91.0758 135.286 90.8787 135.384 90.5829C135.482 90.2871 135.531 89.8139 135.531 89.1632V83.1886C135.531 82.0055 135.345 81.128 134.973 80.5562C134.62 79.9646 133.905 79.6688 132.829 79.6688C132.261 79.6688 131.713 79.7773 131.184 79.9942C130.655 80.1914 130.088 80.566 129.481 81.1181V88.8674C129.481 89.6364 129.52 90.1885 129.598 90.5237C129.696 90.8589 129.882 91.0758 130.156 91.1744C130.45 91.2533 130.9 91.3125 131.507 91.3519C131.605 91.6477 131.605 91.9533 131.507 92.2688C131.018 92.2688 130.479 92.2589 129.892 92.2392C129.304 92.2195 128.649 92.2096 127.924 92.2096C127.2 92.2096 126.554 92.2195 125.986 92.2392C125.418 92.2589 124.84 92.2688 124.253 92.2688C124.194 91.9533 124.194 91.6477 124.253 91.3519C124.919 91.3125 125.408 91.2533 125.721 91.1744C126.035 91.0758 126.24 90.8787 126.338 90.5829C126.436 90.2871 126.485 89.8139 126.485 89.1632V74.9069C126.485 74.3351 126.475 73.8815 126.456 73.5463C126.436 73.1914 126.348 72.9154 126.191 72.7182C126.035 72.5013 125.81 72.3534 125.516 72.2745C125.222 72.1759 124.752 72.097 124.106 72.0379C124.047 71.7816 124.047 71.5154 124.106 71.2393C124.889 71.1407 125.682 70.9928 126.485 70.7956C127.288 70.5787 128.139 70.283 129.04 69.9083L129.539 70.0858C129.52 70.5196 129.5 71.0125 129.481 71.5647C129.481 72.097 129.481 72.6886 129.481 73.3393V79.9055C130.362 79.0773 131.223 78.5055 132.065 78.19C132.927 77.8548 133.749 77.6872 134.532 77.6872C135.824 77.6872 136.813 78.0717 137.498 78.8407C138.183 79.6097 138.526 80.7139 138.526 82.1533V88.8674C138.526 89.6364 138.565 90.1885 138.644 90.5237C138.741 90.8589 138.937 91.0758 139.231 91.1744C139.525 91.2533 139.994 91.3125 140.641 91.3519C140.68 91.6477 140.68 91.9533 140.641 92.2688C140.053 92.2688 139.476 92.2589 138.908 92.2392C138.36 92.2195 137.714 92.2096 136.97 92.2096C136.245 92.2096 135.609 92.2195 135.061 92.2392C134.532 92.2589 133.994 92.2688 133.445 92.2688Z" fill="black"/>
<path d="M166.505 92.535C165.213 92.535 164.401 91.8843 164.068 90.5829C162.678 91.9237 161.258 92.5942 159.809 92.5942C158.811 92.5942 157.959 92.2984 157.254 91.7068C156.569 91.0956 156.226 90.2575 156.226 89.1928C156.226 86.5899 158.86 84.9533 164.127 84.2829C164.127 83.8097 164.127 83.3266 164.127 82.8336C164.146 82.3407 164.156 81.8181 164.156 81.266C164.156 80.5759 163.901 80.0435 163.392 79.6688C162.903 79.2745 162.306 79.0773 161.601 79.0773C161.092 79.0773 160.661 79.1562 160.309 79.3139C160.309 79.7674 160.211 80.2308 160.015 80.7041C159.819 81.1773 159.545 81.5815 159.193 81.9167C158.86 82.2322 158.449 82.39 157.959 82.39C157.528 82.39 157.186 82.2717 156.931 82.035C156.696 81.7787 156.579 81.4731 156.579 81.1181C156.579 80.6449 156.794 80.2012 157.225 79.7872C157.675 79.3534 158.243 78.9886 158.928 78.6928C159.614 78.3773 160.328 78.1308 161.072 77.9534C161.816 77.7759 162.482 77.6872 163.069 77.6872C163.794 77.6872 164.459 77.8252 165.066 78.1013C165.693 78.3576 166.192 78.752 166.564 79.2843C166.956 79.797 167.151 80.4379 167.151 81.2069C167.151 81.6801 167.142 82.3012 167.122 83.0702C167.103 83.8195 167.083 84.628 167.063 85.4956C167.063 86.3435 167.054 87.1519 167.034 87.9209C167.014 88.6899 167.005 89.3111 167.005 89.7843C167.005 90.4153 167.279 90.7308 167.827 90.7308C168.179 90.7308 168.718 90.6125 169.442 90.3758C169.521 90.4744 169.569 90.5829 169.589 90.7012C169.628 90.8195 169.658 90.928 169.677 91.0265C169.188 91.5589 168.669 91.9434 168.121 92.1801C167.592 92.4167 167.054 92.535 166.505 92.535ZM164.068 89.7843L164.127 85.3477C162.325 85.5843 161.082 85.9688 160.397 86.5012C159.731 87.0336 159.398 87.7139 159.398 88.5421C159.398 89.2322 159.574 89.7646 159.927 90.1392C160.299 90.4942 160.759 90.6716 161.307 90.6716C161.66 90.6716 162.051 90.5927 162.482 90.435C162.932 90.2773 163.461 90.0604 164.068 89.7843Z" fill="black"/>
<path d="M190.269 92.5942C189.094 92.5942 188.164 92.3181 187.479 91.766C186.794 91.1942 186.451 90.3758 186.451 89.3111C186.451 87.5759 186.461 85.8998 186.481 84.2829C186.52 82.666 186.549 81.1083 186.569 79.6097H184.337C184.278 79.3139 184.278 79.0477 184.337 78.8111C186.275 77.9829 187.734 76.6322 188.713 74.759C188.869 74.759 189.026 74.7689 189.183 74.7886C189.339 74.7886 189.476 74.7984 189.594 74.8182C189.574 75.3308 189.555 75.8731 189.535 76.4449C189.535 77.0167 189.525 77.6182 189.506 78.2491H193.97C194.028 78.6829 194.028 79.1365 193.97 79.6097H189.506C189.466 80.99 189.437 82.4491 189.417 83.9871C189.417 85.5054 189.417 87.0336 189.417 88.5716C189.417 90.1688 190.24 90.9674 191.884 90.9674C192.589 90.9674 193.245 90.7801 193.852 90.4054C194.028 90.642 194.136 90.9378 194.175 91.2927C193.02 92.1603 191.718 92.5942 190.269 92.5942Z" fill="black"/>
<path d="M109.968 84.9042C109.968 86.603 108.591 87.9802 106.892 87.9802C105.194 87.9802 103.816 86.603 103.816 84.9042C103.816 83.2053 105.194 81.8281 106.892 81.8281C108.591 81.8281 109.968 83.2053 109.968 84.9042Z" fill="#996830"/>
</svg>
